REM MD5 119ade89775ab8f890539ad047b3087b
FILE "Street Fighter Collection (USA) (Disc 1).bin" BINARY
  TRACK 01 MODE2/2352
    INDEX 01 00:00:00
  TRACK 02 AUDIO
    INDEX 00 05:10:09
    INDEX 01 05:12:09
  TRACK 03 AUDIO
    INDEX 00 06:26:11
    INDEX 01 06:28:11
  TRACK 04 AUDIO
    INDEX 00 08:13:64
    INDEX 01 08:15:64
  TRACK 05 AUDIO
    INDEX 00 10:23:26
    INDEX 01 10:25:26
  TRACK 06 AUDIO
    INDEX 00 12:17:61
    INDEX 01 12:19:61
  TRACK 07 AUDIO
    INDEX 00 14:18:35
    INDEX 01 14:20:35
  TRACK 08 AUDIO
    INDEX 00 16:14:02
    INDEX 01 16:16:02
  TRACK 09 AUDIO
    INDEX 00 17:28:15
    INDEX 01 17:30:15
  TRACK 10 AUDIO
    INDEX 00 19:22:71
    INDEX 01 19:24:71
  TRACK 11 AUDIO
    INDEX 00 21:17:44
    INDEX 01 21:19:44
  TRACK 12 AUDIO
    INDEX 00 23:15:43
    INDEX 01 23:17:43
  TRACK 13 AUDIO
    INDEX 00 24:44:06
    INDEX 01 24:46:06
  TRACK 14 AUDIO
    INDEX 00 27:01:14
    INDEX 01 27:03:14
  TRACK 15 AUDIO
    INDEX 00 28:23:72
    INDEX 01 28:25:72
  TRACK 16 AUDIO
    INDEX 00 30:21:57
    INDEX 01 30:23:57
  TRACK 17 AUDIO
    INDEX 00 31:45:47
    INDEX 01 31:47:47
  TRACK 18 AUDIO
    INDEX 00 33:14:12
    INDEX 01 33:16:12
  TRACK 19 AUDIO
    INDEX 00 34:34:14
    INDEX 01 34:36:14
  TRACK 20 AUDIO
    INDEX 00 35:06:03
    INDEX 01 35:08:03
  TRACK 21 AUDIO
    INDEX 00 35:37:70
    INDEX 01 35:39:70
  TRACK 22 AUDIO
    INDEX 00 36:09:71
    INDEX 01 36:11:71
  TRACK 23 AUDIO
    INDEX 00 36:41:72
    INDEX 01 36:43:72
  TRACK 24 AUDIO
    INDEX 00 37:13:73
    INDEX 01 37:15:73
  TRACK 25 AUDIO
    INDEX 00 37:45:73
    INDEX 01 37:47:73
  TRACK 26 AUDIO
    INDEX 00 38:17:74
    INDEX 01 38:19:74
  TRACK 27 AUDIO
    INDEX 00 38:50:00
    INDEX 01 38:52:00
  TRACK 28 AUDIO
    INDEX 00 39:22:00
    INDEX 01 39:24:00
  TRACK 29 AUDIO
    INDEX 00 39:54:01
    INDEX 01 39:56:01
  TRACK 30 AUDIO
    INDEX 00 40:26:02
    INDEX 01 40:28:02
  TRACK 31 AUDIO
    INDEX 00 40:58:03
    INDEX 01 41:00:03
  TRACK 32 AUDIO
    INDEX 00 41:30:04
    INDEX 01 41:32:04
  TRACK 33 AUDIO
    INDEX 00 42:02:05
    INDEX 01 42:04:05
  TRACK 34 AUDIO
    INDEX 00 42:34:06
    INDEX 01 42:36:06
  TRACK 35 AUDIO
    INDEX 00 43:06:07
    INDEX 01 43:08:07
  TRACK 36 AUDIO
    INDEX 00 43:38:08
    INDEX 01 43:40:08
  TRACK 37 AUDIO
    INDEX 00 43:46:10
    INDEX 01 43:48:10
  TRACK 38 AUDIO
    INDEX 00 43:53:25
    INDEX 01 43:55:25
  TRACK 39 AUDIO
    INDEX 00 44:59:66
    INDEX 01 45:01:66
  TRACK 40 AUDIO
    INDEX 00 45:35:72
    INDEX 01 45:37:72
  TRACK 41 AUDIO
    INDEX 00 46:11:49
    INDEX 01 46:13:49
  TRACK 42 AUDIO
    INDEX 00 46:19:49
    INDEX 01 46:21:49
  TRACK 43 AUDIO
    INDEX 00 46:53:15
    INDEX 01 46:55:15
  TRACK 44 AUDIO
    INDEX 00 47:18:48
    INDEX 01 47:20:48
  TRACK 45 AUDIO
    INDEX 00 47:50:42
    INDEX 01 47:52:42
  TRACK 46 AUDIO
    INDEX 00 47:57:25
    INDEX 01 47:59:25
  TRACK 47 AUDIO
    INDEX 00 48:24:24
    INDEX 01 48:26:24
  TRACK 48 AUDIO
    INDEX 00 48:41:24
    INDEX 01 48:43:24
  TRACK 49 AUDIO
    INDEX 00 49:39:25
    INDEX 01 49:41:25
  TRACK 50 AUDIO
    INDEX 00 50:26:25
    INDEX 01 50:28:25
  TRACK 51 AUDIO
    INDEX 00 50:53:26
    INDEX 01 50:55:26
  TRACK 52 AUDIO
    INDEX 00 51:31:26
    INDEX 01 51:33:26
  TRACK 53 AUDIO
    INDEX 00 52:09:27
    INDEX 01 52:11:27
  TRACK 54 AUDIO
    INDEX 00 52:56:28
    INDEX 01 52:58:28
  TRACK 55 AUDIO
    INDEX 00 53:38:29
    INDEX 01 53:40:29
  TRACK 56 AUDIO
    INDEX 00 54:47:30
    INDEX 01 54:49:30
  TRACK 57 AUDIO
    INDEX 00 56:29:74
    INDEX 01 56:31:74
  TRACK 58 AUDIO
    INDEX 00 57:05:71
    INDEX 01 57:07:71
  TRACK 59 AUDIO
    INDEX 00 57:51:40
    INDEX 01 57:53:40
  TRACK 60 AUDIO
    INDEX 00 58:36:62
    INDEX 01 58:38:62
  TRACK 61 AUDIO
    INDEX 00 59:02:46
    INDEX 01 59:04:46
  TRACK 62 AUDIO
    INDEX 00 59:57:59
    INDEX 01 59:59:59
  TRACK 63 AUDIO
    INDEX 00 60:23:43
    INDEX 01 60:25:43
  TRACK 64 AUDIO
    INDEX 00 61:15:51
    INDEX 01 61:17:51
  TRACK 65 AUDIO
    INDEX 00 61:29:43
    INDEX 01 61:31:43
  TRACK 66 AUDIO
    INDEX 00 62:28:61
    INDEX 01 62:30:61
  TRACK 67 AUDIO
    INDEX 00 62:54:45
    INDEX 01 62:56:45
  TRACK 68 AUDIO
    INDEX 00 64:04:47
    INDEX 01 64:06:47
  TRACK 69 AUDIO
    INDEX 00 64:30:31
    INDEX 01 64:32:31
  TRACK 70 AUDIO
    INDEX 00 65:27:59
    INDEX 01 65:29:59
  TRACK 71 AUDIO
    INDEX 00 65:53:43
    INDEX 01 65:55:43
  TRACK 72 MODE2/2352
    INDEX 00 66:48:68
    INDEX 01 66:51:68
REM LEADOUT 70:55:06
